<svg width="4644" height="1071" viewBox="0 0 4644 1071" fill="none" xmlns="http://www.w3.org/2000/svg">
<path d="M232.596 401.317L183.184 219.338L0 267.545L49.411 450.729L232.596 401.317ZM232.596 668.863L49.411 619.451L0 802.635L183.184 850.842L232.596 668.863ZM463.986 802.635L330.213 936.408L463.986 1070.18L597.759 936.408L463.986 802.635ZM695.376 668.863L744.788 852.047L927.972 802.635L878.561 619.451L695.376 668.863ZM695.376 401.317L878.561 450.729L927.972 267.545L744.788 219.338L695.376 401.317ZM463.986 267.545L597.759 133.772L463.986 0L330.213 133.772L463.986 267.545Z" fill="#4E45E4"/>
<path d="M1493.73 293.794C1488.79 294.374 1477.19 296.984 1467.62 299.304C1458.05 301.624 1442.97 306.264 1434.27 309.454C1425.57 312.644 1409.91 320.184 1399.47 325.694C1389.03 331.495 1371.63 345.415 1360.32 356.725C1349.3 368.035 1335.67 384.565 1330.45 393.266C1325.52 401.966 1317.4 420.236 1312.47 433.866C1307.83 447.496 1302.61 467.797 1301.16 478.817C1299.42 489.837 1297.97 515.358 1297.97 535.368C1297.97 555.378 1299.42 580.029 1300.87 590.469C1302.61 600.909 1306.67 617.729 1310.15 628.17C1313.34 638.61 1320.88 656.01 1326.68 667.32C1332.48 678.34 1344.95 696.031 1354.52 706.181C1364.09 716.331 1381.2 730.831 1392.22 738.081C1403.24 745.622 1422.38 755.192 1434.27 759.542C1446.16 764.182 1465.88 769.982 1477.77 772.592C1493.15 776.072 1512.87 777.522 1544.48 777.232C1578.7 777.232 1594.07 776.072 1608.28 772.012C1618.72 769.112 1634.96 762.732 1644.24 757.802C1654.1 752.292 1666.57 742.432 1673.24 734.311L1685.13 720.391C1687.74 768.822 1688.61 771.722 1693.83 772.882C1697.02 773.462 1719.64 773.172 1744 772.012L1788.08 770.272L1786.63 507.818H1545.93V594.819L1686.58 596.269C1686.58 611.059 1683.1 620.629 1678.17 628.17C1673.82 635.42 1666.28 644.7 1661.64 649.05C1657 653.4 1647.43 659.49 1640.18 662.68C1632.93 665.87 1618.72 669.93 1608.28 671.67C1597.84 673.7 1571.16 675.15 1548.83 675.44C1525.34 675.44 1500.98 673.99 1490.82 671.96C1481.25 669.93 1467.04 665 1458.92 661.52C1451.09 657.75 1438.62 649.05 1431.66 642.09C1424.7 635.13 1415.71 622.949 1412.23 615.119C1408.46 606.999 1403.53 590.469 1400.92 577.999C1398.6 565.818 1396.57 546.098 1396.57 534.498C1396.86 523.188 1398.6 503.177 1400.92 490.417C1403.24 477.657 1408.46 460.547 1412.23 452.717C1416.29 444.596 1424.12 433.286 1429.63 427.196C1435.43 421.396 1446.16 413.276 1453.99 409.506C1461.53 405.736 1476.03 400.226 1486.47 397.326C1500.69 393.556 1516.06 392.106 1547.38 392.106C1572.03 392.106 1596.68 393.556 1606.83 395.876C1616.4 398.196 1629.45 401.966 1635.83 404.866C1642.21 407.476 1652.65 414.146 1658.74 419.656C1664.83 425.166 1673.82 436.476 1678.17 444.596L1686.58 459.967C1765.75 459.967 1785.76 458.807 1786.63 457.067C1787.5 455.327 1784.89 444.596 1780.83 432.996C1776.77 421.686 1769.23 404.866 1764.3 396.166C1759.37 387.465 1744.58 369.775 1731.82 356.725C1712.68 337.585 1703.4 330.915 1680.78 319.604C1665.7 312.354 1642.79 303.364 1630.03 300.174C1611.47 295.244 1596.39 293.794 1554.63 293.214C1525.92 292.634 1498.66 292.924 1493.73 293.794ZM1866.38 535.368V773.172C2201.34 773.462 2239.91 772.592 2242.81 769.692C2245.71 766.792 2246.29 755.772 2244.84 721.841L2243.39 677.47C2212.94 676.89 2151.17 676.89 2085.92 677.18L1967.88 677.47V575.969L2244.84 574.519V487.517L1967.88 486.067L1969.33 386.015L2244.84 383.115V299.014L1866.38 297.564V535.368ZM2325.46 534.498L2326.04 771.722H2424.64C2425.8 415.596 2426.96 312.064 2428.41 312.064C2429.57 312.064 2439.14 341.065 2449.87 376.445C2460.6 412.116 2491.05 514.198 2517.73 603.519C2544.41 692.841 2567.61 767.662 2569.35 769.692C2571.96 772.592 2594 773.172 2667.66 773.172C2719.87 773.172 2764.53 772.592 2766.85 771.722C2770.62 770.562 2771.2 741.271 2771.2 533.918V297.564H2669.7C2669.7 675.73 2668.82 758.962 2667.08 757.222C2665.63 755.482 2658.96 736.631 2652.58 715.171C2646.2 693.711 2616.62 595.109 2587.04 496.217C2557.46 397.326 2531.94 312.064 2530.49 306.844L2527.59 297.564H2324.59L2325.46 534.498ZM2850.37 534.498L2851.24 771.432H2949.84C2952.45 355.565 2953.32 318.734 2956.22 330.625C2958.25 338.745 2962.31 358.175 2965.5 374.125C2968.4 390.076 2986.38 485.487 3004.94 585.829C3023.5 686.461 3040.32 769.692 3042.06 770.852C3043.8 772.012 3091.36 772.882 3147.33 772.882C3226.79 772.882 3250.29 772.012 3253.19 769.112C3255.51 767.082 3261.6 741.271 3266.82 711.981C3272.33 682.4 3286.25 607.579 3297.85 545.228C3309.74 483.167 3324.24 406.896 3330.33 375.575L3341.35 319.024C3342.51 717.491 3343.67 769.112 3346.28 770.852C3348.31 772.012 3370.35 772.882 3395.58 772.882C3423.13 772.882 3441.69 771.722 3442.85 769.982C3443.43 768.532 3444.3 661.81 3444.88 533.048L3445.46 298.724L3235.49 297.274C3230.85 321.054 3217.22 395.586 3201.85 478.527C3186.77 561.468 3168.79 658.04 3162.41 693.131C3156.03 728.221 3149.65 758.382 3148.2 759.832C3146.75 761.862 3145.01 760.122 3144.14 755.482C3143.27 751.712 3127.32 666.74 3109.05 566.979C3090.49 467.507 3071.64 366.295 3067.29 342.225L3059.46 298.724L2849.79 297.274L2850.37 534.498ZM3649.91 318.444C3646.43 330.044 3614.82 430.966 3579.73 542.618C3544.64 654.27 3514.48 749.392 3512.74 754.322C3511.29 758.962 3510.71 765.342 3511.87 767.952C3513.32 772.592 3518.54 773.172 3562.91 773.172C3611.05 773.172 3612.21 772.882 3616.27 766.502C3618.59 763.022 3620.91 757.512 3621.78 754.322C3622.65 751.132 3632.8 718.361 3644.11 681.82C3655.42 644.99 3682.39 558.858 3703.85 490.417C3725.6 421.686 3747.64 351.215 3753.44 333.815C3759.53 314.384 3764.46 303.074 3766.2 304.814C3767.65 306.264 3785.05 359.915 3805.06 423.716C3825.07 487.517 3857.27 590.469 3876.7 652.82C3896.13 714.881 3913.24 767.662 3914.98 769.692C3917.59 772.882 3928.9 773.462 3968.05 772.592C3995.31 772.012 4018.51 771.142 4019.38 770.272C4020.54 769.402 3998.5 696.321 3970.66 607.869C3942.82 519.418 3909.76 413.566 3897 372.965L3874.09 299.014L3656.29 297.564L3649.91 318.444ZM4084.92 533.628C4084.92 719.811 4085.79 770.562 4088.4 772.012C4090.43 772.882 4113.34 772.592 4139.15 771.142L4186.42 768.532V297.274H4084.92V533.628ZM4271.97 301.044C4271.1 303.074 4270.81 409.506 4271.1 537.978L4271.97 771.432C4433.8 772.592 4517.32 772.012 4561.98 770.852L4643.18 768.532V684.431L4372.02 682.98V297.274C4285.89 297.274 4272.84 298.144 4271.97 301.044Z" fill="#111726"/>
</svg>
